<svg xmlns="http://www.w3.org/2000/svg"  viewBox="0 0 24 24" width="24px" height="24px"><path d="M 9.21875 3 C 8 3 7 4 7 5.21875 L 7 7 L 0.84375 7 C 0.382813 7 0 7.382813 0 7.84375 L 0 15.15625 C 0 15.617188 0.382813 16 0.84375 16 L 23.15625 16 C 23.617188 16 24 15.617188 24 15.15625 L 24 7.84375 C 24 7.382813 23.617188 7 23.15625 7 L 17 7 L 17 5.21875 C 17 4 16 3 14.78125 3 Z M 9.21875 5 L 14.78125 5 C 14.917969 5 15 5.082031 15 5.21875 L 15 7 L 9 7 L 9 5.21875 C 9 5.082031 9.082031 5 9.21875 5 Z M 12 12 C 12.550781 12 13 12.449219 13 13 C 13 13.550781 12.550781 14 12 14 C 11.449219 14 11 13.550781 11 13 C 11 12.449219 11.449219 12 12 12 Z M 0 16.15625 L 0 23.15625 C 0 23.617188 0.382813 24 0.84375 24 L 23.15625 24 C 23.617188 24 24 23.617188 24 23.15625 L 24 16.15625 C 24 16.617188 23.617188 17 23.15625 17 L 0.84375 17 C 0.382813 17 0 16.617188 0 16.15625 Z"/></svg>